<svg xmlns="http://www.w3.org/2000/svg" viewBox="0 0 260.021 260.306" class="w-22 h-22 md:w-32 md:h-32"><defs><style>.the_next_gen_logo_icon_svg__d{fill:#39c0ba}.the_next_gen_logo_icon_svg__f{fill:#8ce0da}</style></defs><path fill="none" d="M-.072-.01h260.327v260.327H-.072z"/><path fill="#397a72" d="M1.232 185.916h64.389l-32.195-55.763-32.194 55.763z"/><path fill="#55a599" d="M33.426 130.153h64.39L65.621 74.39l-32.195 55.763z"/><path class="the_next_gen_logo_icon_svg__d" d="M97.816 18.627 65.621 74.39h64.389L97.816 18.627z"/><path fill="#4d9187" d="m65.621 185.916 32.195-55.763h-64.39l32.195 55.763z"/><path class="the_next_gen_logo_icon_svg__f" d="m65.621 74.39 32.195 55.763L130.01 74.39H65.621z"/><path fill="#93bab7" d="m130.01 74.39-32.194 55.763h64.389L130.01 74.39z"/><path fill="#239b92" d="m97.816 130.153 32.194 55.763 32.195-55.763H97.816z"/><path fill="#87c6c0" d="M130.01 185.916h64.39l-32.195-55.763-32.195 55.763z"/><path class="the_next_gen_logo_icon_svg__d" d="m162.205 241.679 32.195-55.763h-64.39l32.195 55.763z"/><path class="the_next_gen_logo_icon_svg__f" d="m194.4 185.916 32.194-55.763h-64.389l32.195 55.763z"/><path fill="#979797" d="M162.205 130.153h64.389L194.4 74.39l-32.195 55.763z"/><path fill="#d3d3d3" d="m194.4 74.39 32.194 55.763 32.195-55.763H194.4z"/></svg>