<?xml version="1.0" standalone="no"?>
<!DOCTYPE svg PUBLIC "-//W3C//DTD SVG 20010904//EN"
 "http://www.w3.org/TR/2001/REC-SVG-20010904/DTD/svg10.dtd">
<svg version="1.0" xmlns="http://www.w3.org/2000/svg"
 width="541.000000pt" height="541.000000pt" viewBox="0 0 541.000000 541.000000"
 preserveAspectRatio="xMidYMid meet">
<metadata>
Created by potrace 1.11, written by Peter Selinger 2001-2013
</metadata>
<g transform="translate(0.000000,541.000000) scale(0.100000,-0.100000)"
fill="#000000" stroke="none">
<path d="M4055 5324 c-55 -7 -127 -16 -160 -19 -33 -4 -68 -9 -77 -10 -9 -2
-48 -7 -85 -10 -37 -4 -75 -8 -83 -10 -8 -2 -46 -7 -85 -11 -38 -3 -78 -8 -88
-10 -11 -2 -45 -6 -76 -9 -31 -4 -67 -8 -81 -11 -14 -2 -52 -6 -85 -9 -33 -3
-91 -10 -130 -15 -86 -12 -179 -23 -285 -34 -30 -4 -71 -8 -90 -11 -19 -3 -55
-7 -80 -10 -25 -3 -63 -8 -85 -11 -22 -3 -60 -7 -85 -9 -25 -2 -45 -4 -45 -5
0 -3 -33 -8 -105 -15 -41 -4 -82 -8 -90 -10 -29 -5 -135 -18 -165 -20 -16 -2
-50 -5 -75 -9 -25 -3 -67 -8 -95 -11 -27 -3 -66 -7 -85 -10 -19 -3 -57 -7 -85
-10 -27 -3 -86 -10 -130 -16 -115 -14 -204 -25 -275 -33 -98 -11 -146 -18
-175 -23 -16 -3 -37 -5 -45 -5 -15 0 -130 -14 -199 -24 -42 -6 -41 -4 -46 -40
-2 -16 -6 -38 -9 -50 -2 -12 -7 -45 -11 -75 -3 -30 -13 -103 -21 -164 -8 -60
-17 -128 -20 -150 -2 -22 -7 -51 -9 -65 -3 -14 -7 -45 -10 -70 -2 -25 -7 -59
-9 -75 -2 -17 -7 -50 -10 -75 -3 -25 -8 -56 -10 -70 -10 -60 -19 -147 -17
-165 2 -19 68 -88 124 -129 14 -11 24 -23 21 -28 -3 -4 1 -8 8 -8 7 0 36 -21
63 -47 47 -43 91 -82 182 -163 144 -128 188 -168 210 -187 13 -13 28 -23 34
-23 5 0 9 -7 9 -15 0 -8 4 -15 8 -15 7 0 58 -43 117 -97 18 -17 169 -151 233
-207 13 -12 36 -32 51 -46 15 -14 58 -52 95 -85 97 -85 185 -165 224 -202 19
-18 36 -33 39 -33 6 0 18 -10 175 -162 58 -57 145 -139 193 -183 48 -44 106
-98 130 -120 23 -22 91 -85 150 -140 58 -55 129 -121 155 -147 27 -27 51 -48
53 -48 2 0 38 -33 79 -72 41 -40 122 -116 178 -168 57 -52 127 -119 156 -147
29 -29 58 -53 63 -53 5 0 13 -9 16 -20 4 -11 9 -19 13 -17 4 2 15 -4 25 -15 9
-10 16 -18 15 -19 -15 -4 -81 -11 -110 -12 -21 -1 -38 -4 -38 -7 0 -3 -15 -5
-33 -6 -59 -2 -212 -19 -212 -24 0 -1 -20 -3 -45 -5 -25 -2 -65 -6 -90 -10
-25 -3 -63 -8 -85 -10 -22 -3 -58 -7 -80 -10 -22 -3 -62 -7 -90 -10 -27 -2
-50 -4 -50 -5 0 -1 -11 -3 -25 -5 -14 -1 -52 -5 -85 -10 -33 -4 -76 -9 -95
-11 -19 -1 -55 -6 -80 -10 -25 -3 -63 -8 -85 -10 -22 -2 -56 -6 -75 -9 -19 -3
-59 -8 -89 -10 -30 -3 -57 -8 -62 -10 -4 -3 -10 -1 -14 4 -5 10 15 39 63 88
12 13 22 27 22 30 0 3 16 25 35 49 19 23 35 45 35 48 0 6 138 185 178 231 39
44 83 105 97 132 15 28 14 28 -47 85 -34 32 -62 58 -64 58 -2 0 -109 100 -211
197 -25 24 -47 43 -49 43 -2 0 -35 30 -73 67 -132 127 -172 163 -181 163 -6 0
-10 7 -10 15 0 8 -4 15 -10 15 -5 0 -18 9 -29 21 -20 22 -41 18 -41 -7 0 -8
-5 -12 -10 -9 -5 3 -10 2 -10 -3 0 -13 -89 -144 -108 -159 -9 -7 -12 -13 -8
-13 4 0 -6 -18 -23 -39 -17 -21 -31 -43 -31 -47 0 -5 -12 -20 -25 -33 -14 -13
-25 -28 -25 -35 0 -6 -11 -23 -25 -38 -14 -15 -25 -31 -25 -36 0 -4 -8 -17
-17 -28 -30 -34 -103 -142 -103 -154 0 -5 -4 -10 -9 -10 -8 0 -28 -27 -67 -91
-5 -10 -18 -28 -27 -41 -35 -48 -123 -175 -152 -218 -16 -25 -32 -47 -35 -50
-4 -3 -17 -23 -30 -45 -14 -22 -33 -50 -44 -62 -10 -12 -24 -30 -30 -41 -27
-47 -70 -107 -77 -110 -5 -2 -9 -8 -9 -13 0 -5 -16 -29 -35 -55 -19 -25 -35
-53 -35 -62 0 -14 24 -86 47 -142 3 -8 7 -17 8 -20 1 -3 6 -16 13 -30 6 -14
26 -65 45 -115 19 -49 38 -99 42 -110 5 -11 9 -22 10 -25 1 -3 9 -22 18 -42
10 -21 17 -42 17 -48 0 -6 5 -21 12 -33 7 -12 13 -26 14 -32 1 -5 7 -23 14
-40 6 -16 11 -32 11 -35 0 -3 7 -15 15 -27 8 -13 15 -34 16 -48 1 -14 6 -25
10 -25 4 0 15 -25 24 -55 10 -30 22 -55 26 -55 5 0 7 -4 4 -9 -11 -17 19 -58
39 -55 11 2 40 6 65 8 25 3 45 5 45 6 0 1 20 3 45 5 25 2 65 6 90 10 66 9 165
21 250 30 30 4 66 8 80 10 39 5 154 19 255 30 33 4 71 8 85 11 14 2 50 7 80
10 30 3 65 7 78 9 13 2 53 7 90 11 37 3 76 8 87 11 11 2 44 6 74 9 30 2 66 6
80 9 14 2 51 6 81 10 30 3 89 10 130 15 41 6 98 12 125 15 28 3 66 7 85 10 19
3 55 7 80 10 25 3 61 7 80 10 19 3 55 7 80 10 50 4 129 13 175 20 17 2 57 7
90 10 33 4 67 8 75 11 8 2 44 6 80 9 36 3 76 7 90 10 14 2 50 7 80 10 30 3 68
8 84 11 16 3 54 7 85 9 31 3 67 7 81 10 14 3 57 7 95 11 39 3 76 7 83 10 8 2
43 7 80 10 87 9 115 17 117 34 1 8 6 42 10 75 4 33 9 71 11 85 2 14 6 49 9 79
3 29 7 56 9 60 2 3 7 31 10 61 12 100 17 135 21 160 2 14 7 49 10 79 4 30 8
61 10 70 1 9 6 41 10 71 3 30 8 66 10 80 2 14 7 52 10 85 4 33 9 63 12 68 5 8
-31 45 -128 132 -91 81 -178 158 -208 185 -25 22 -124 110 -197 175 -26 24
-157 140 -197 175 -15 14 -43 39 -61 55 -18 17 -64 57 -101 90 -90 79 -117
103 -194 175 -36 33 -67 60 -70 60 -3 0 -36 28 -72 63 -37 34 -97 89 -135 122
-70 62 -156 142 -235 220 -25 25 -51 45 -57 45 -7 0 -12 4 -12 8 0 11 -35 52
-43 52 -3 0 -40 33 -81 72 -41 40 -109 105 -151 143 -85 77 -185 172 -256 240
-25 25 -51 45 -57 45 -7 0 -12 7 -12 15 0 8 -3 15 -7 15 -5 0 -42 33 -84 73
-42 39 -120 113 -174 162 -53 50 -126 118 -162 153 -37 34 -70 62 -74 62 -5 0
-9 7 -9 15 0 8 -5 15 -11 15 -6 0 -17 7 -25 15 -17 16 -18 16 41 20 17 1 37 5
45 8 8 3 44 8 80 12 36 4 81 8 101 10 20 2 56 6 80 9 96 12 126 16 169 21 25
3 54 7 65 9 11 2 26 -2 34 -8 11 -8 13 -8 7 2 -5 8 0 12 16 13 13 0 32 2 43 4
11 1 47 5 80 9 33 3 70 8 81 10 11 2 49 7 84 10 69 7 108 12 168 21 33 5 76 9
182 20 19 2 35 4 35 5 0 1 20 3 45 5 25 2 56 6 69 9 l24 5 -22 -22 c-11 -13
-21 -27 -21 -31 0 -4 -11 -18 -25 -32 -14 -14 -25 -28 -25 -32 0 -5 -16 -23
-35 -42 -19 -19 -35 -41 -35 -47 0 -7 -9 -22 -20 -33 -11 -11 -17 -20 -12 -20
4 0 2 -4 -3 -8 -6 -4 -29 -29 -50 -57 -22 -27 -44 -55 -50 -62 -13 -16 -19
-24 -81 -103 -27 -36 -58 -78 -68 -93 l-17 -28 62 -60 c34 -33 71 -65 81 -70
10 -6 16 -14 13 -20 -4 -5 -1 -9 5 -9 7 0 27 -16 46 -35 19 -20 34 -34 34 -31
0 2 34 -28 75 -68 41 -39 106 -100 145 -136 39 -36 97 -90 129 -120 32 -30 73
-67 92 -83 l33 -27 23 27 c13 16 31 42 40 58 8 17 19 32 22 35 3 3 24 32 47
65 22 33 61 90 87 127 26 37 47 72 47 77 0 6 4 11 10 11 5 0 17 14 26 32 9 18
23 39 31 47 8 8 26 33 40 55 14 23 31 44 37 48 6 4 7 8 2 8 -5 0 3 12 18 26
14 15 26 32 26 38 0 6 11 23 25 38 14 15 25 31 25 35 0 4 9 19 20 33 47 60 90
121 90 128 0 4 11 19 25 34 14 15 25 30 25 33 0 4 21 35 75 110 8 11 15 25 16
30 1 6 12 20 26 33 13 12 20 22 16 22 -4 0 -3 4 2 8 6 4 15 14 20 23 25 42
112 166 128 184 25 28 32 62 17 93 -8 15 -13 30 -12 34 1 4 -5 23 -13 42 -9
20 -14 37 -13 38 1 2 -5 17 -14 33 -26 50 -48 105 -48 120 0 8 -5 15 -11 15
-5 0 -8 4 -5 9 3 5 -1 21 -8 37 -8 16 -35 83 -61 149 -67 173 -67 173 -65 181
1 4 -2 10 -7 13 -4 3 -16 27 -25 54 -10 26 -26 68 -35 95 -10 26 -21 49 -26
50 -4 2 -5 7 -2 12 13 21 -26 25 -120 14z"/>
</g>
</svg>
